<?xml version="1.0" standalone="no"?>
<!DOCTYPE svg PUBLIC "-//W3C//DTD SVG 1.1//EN" "http://www.w3.org/Graphics/SVG/1.1/DTD/svg11.dtd" >
<svg xmlns="http://www.w3.org/2000/svg" xmlns:svg="http://www.w3.org/2000/svg" xmlns:xlink="http://www.w3.org/1999/xlink" viewBox="0 0 1024 1024"><path d="M394.5 400.5Q466.5 353.5 422.5 418.5Q474.5 384.5 418.5 444.5Q463.5 402.5 403.5 454.5Q443.5 406.5 383.5 457.5Q435.5 412.5 385.5 466.5Q434.5 487.5 304.5 689.5Q399.5 658.5 379.5 725.5Q449.5 694.5 384.5 767.5Q421.5 732.5 352.5 769.5Q374.5 701.5 280.5 734.5Q291.5 756.5 190.5 889.5Q232.5 853.5 172.5 917.5Q206.5 879.5 141.5 921.5Q178.5 863.5 130.5 893.5Q182.5 836.5 139.5 875.5Q201.5 806.5 156.5 853.5Q207.5 802.5 160.5 851.5Q253.5 730.5 236.5 720.5Q248.5 658.5 151.5 697.5H130.5Q165.5 645.5 107.5 677.5Q155.5 613.5 112.5 650.5Q171.5 578.5 129.5 601.5Q189.5 513.5 148.5 529.5Q186.5 483.5 124.5 539.5Q147.5 497.5 75.5 547.5Q106.5 493.5 55.5 528.5Q102.5 465.5 58.5 507.5Q111.5 446.5 107.5 488.5Q179.5 433.5 165.5 471.5Q266.5 226.5 234.5 173.5Q286.5 106.5 256.5 158.5Q334.5 114.5 280.5 190.5Q300.5 268.5 215.5 454.5Q343.5 381.5 360.5 409.5Q424.5 352.5 394.5 400.5ZM200.5 511.5Q233.5 530.5 165.5 646.5Q269.5 610.5 261.5 674.5Q364.5 518.5 333.5 497.5Q386.5 431.5 336.5 467.5Q332.5 432.5 200.5 511.5ZM727.5 94.5Q770.5 52.5 702.5 106.5Q742.5 59.5 685.5 113.5Q699.5 76.5 557.5 184.5L493.5 223.5Q520.5 180.5 461.5 222.5Q500.5 155.5 477.5 197.5Q690.5 7.5 691.5 50.5Q763.5 -4.5 731.5 66.5Q789.5 34.5 727.5 94.5ZM641.5 266.5Q673.5 194.5 605.5 224.5Q641.5 151.5 604.5 187.5Q664.5 126.5 629.5 180.5Q705.5 144.5 687.5 246.5Q761.5 171.5 733.5 196.5Q806.5 120.5 775.5 151.5Q845.5 80.5 809.5 121.5Q877.5 55.5 848.5 118.5Q916.5 84.5 853.5 155.5Q899.5 114.5 799.5 205.5Q812.5 188.5 690.5 304.5Q769.5 245.5 745.5 286.5Q810.5 229.5 777.5 277.5Q852.5 230.5 808.5 296.5Q861.5 264.5 803.5 325.5Q848.5 283.5 788.5 335.5Q812.5 289.5 731.5 345.5Q746.5 304.5 644.5 372.5Q691.5 365.5 614.5 480.5Q756.5 401.5 788.5 425.5Q858.5 366.5 831.5 414.5Q905.5 367.5 862.5 433.5Q915.5 401.5 857.5 462.5Q901.5 422.5 838.5 475.5Q854.5 430.5 763.5 488.5Q746.5 456.5 585.5 543.5Q611.5 544.5 528.5 652.5Q725.5 539.5 820.5 578.5Q893.5 531.5 849.5 602.5Q904.5 579.5 840.5 642.5Q885.5 596.5 831.5 649.5Q873.5 605.5 816.5 664.5L729.5 786.5Q776.5 742.5 723.5 795.5Q834.5 774.5 846.5 858.5Q949.5 838.5 954.5 923.5Q1016.5 882.5 968.5 941.5Q1021.5 904.5 966.5 964.5Q1008.5 926.5 942.5 978.5Q985.5 928.5 906.5 963.5Q924.5 890.5 820.5 908.5Q834.5 836.5 688.5 839.5Q661.5 882.5 550.5 953.5Q571.5 905.5 518.5 940.5Q566.5 877.5 531.5 921.5Q625.5 860.5 645.5 817.5Q663.5 752.5 579.5 785.5Q580.5 710.5 491.5 749.5Q532.5 697.5 478.5 744.5Q525.5 693.5 475.5 742.5Q506.5 723.5 438.5 803.5Q479.5 768.5 419.5 832.5Q453.5 794.5 388.5 836.5Q424.5 778.5 377.5 808.5Q429.5 750.5 386.5 789.5Q449.5 719.5 403.5 766.5Q455.5 715.5 408.5 764.5Q529.5 602.5 523.5 565.5Q552.5 522.5 484.5 580.5Q500.5 540.5 423.5 590.5Q453.5 536.5 402.5 571.5Q449.5 508.5 405.5 550.5Q459.5 486.5 467.5 526.5Q547.5 468.5 555.5 500.5Q630.5 391.5 593.5 396.5Q644.5 342.5 594.5 389.5Q609.5 351.5 518.5 417.5Q543.5 375.5 472.5 425.5Q502.5 371.5 451.5 407.5Q498.5 343.5 454.5 385.5Q507.5 324.5 501.5 366.5Q567.5 312.5 539.5 354.5Q551.5 256.5 487.5 295.5Q527.5 240.5 466.5 285.5Q489.5 217.5 461.5 244.5Q521.5 183.5 489.5 237.5Q570.5 199.5 574.5 317.5Q634.5 279.5 585.5 339.5Q640.5 288.5 591.5 337.5Q671.5 262.5 649.5 285.5Q698.5 232.5 647.5 279.5Q694.5 218.5 641.5 266.5ZM532.5 708.5Q609.5 666.5 599.5 736.5Q688.5 704.5 678.5 772.5Q732.5 716.5 686.5 760.5Q778.5 650.5 766.5 636.5Q734.5 590.5 552.5 697.5Q589.5 653.5 532.5 708.5Z" fill="black"></path></svg>